<svg width="32" height="32" viewBox="0 0 32 32" fill="none" xmlns="http://www.w3.org/2000/svg"><path fill-rule="evenodd" clip-rule="evenodd" d="M0.413036 21.5428L6.70749 13.0481L8.42949 13.9684L12.5269 7.31421L15.0802 10.3582L16.0304 9.5795L19.712 14.2516L22.3248 11.1368L29.6286 21.5428L22.592 12.6943L21.5231 16.4106L22.5029 19.3484L16.2085 10.6768L16.1403 13.6355L19.712 21.5428L13.0315 9.29626L14.9615 15.9151L12.2597 9.47326L10.7751 13.7561L11.0719 10.9598L7.36058 21.0473L7.80584 16.7999L6.262 15.1011L0.413036 21.5428Z" fill="#F9FBFD"/><path fill-rule="evenodd" clip-rule="evenodd" d="M31.7447 22.8714C21.7787 14.8242 6.267 25.8874 0 21.621C6.8902 27.6669 22.9952 17.4465 31.7447 22.8714Z" fill="#F9FBFD"/><path fill-rule="evenodd" clip-rule="evenodd" d="M32 23.5042C24.1809 18.522 12.5517 25.4554 6.5915 23.8498C13.0499 26.9843 25.0735 20.0393 32 23.5042Z" fill="#F9FBFD"/></svg>